<?xml version="1.0" standalone="no"?>
<!DOCTYPE svg PUBLIC "-//W3C//DTD SVG 20010904//EN"
 "http://www.w3.org/TR/2001/REC-SVG-20010904/DTD/svg10.dtd">
<svg version="1.0" xmlns="http://www.w3.org/2000/svg"
 width="1054.000000pt" height="1280.000000pt" viewBox="0 0 1054.000000 1280.000000"
 preserveAspectRatio="xMidYMid meet">

<g transform="translate(0.000000,1280.000000) scale(0.100000,-0.100000)"
fill="#000000" stroke="none">
<path d="M700 12145 c-280 -57 -499 -229 -620 -488 -22 -46 -48 -115 -57 -153
-17 -66 -18 -321 -18 -5109 0 -4814 1 -5043 18 -5105 44 -161 120 -293 232
-405 117 -117 252 -192 415 -229 70 -17 294 -18 3385 -19 3115 -1 3314 0 3380
16 355 88 602 349 664 701 7 36 11 243 11 522 l0 463 653 4 c553 3 664 6 734
20 269 55 482 165 664 347 144 142 242 301 307 497 65 192 62 103 62 1908 0
1800 3 1713 -60 1906 -64 194 -159 350 -304 495 -179 180 -356 278 -616 342
l-105 26 -667 3 -668 4 0 642 -1 642 -97 111 c-53 61 -630 732 -1281 1492
l-1184 1382 -2391 -1 c-1933 -1 -2403 -3 -2456 -14z m4423 -1535 c3 -1240 0
-1172 67 -1334 100 -240 296 -415 557 -499 67 -21 80 -22 1003 -27 l935 -5 0
-425 0 -425 -1800 -6 c-1982 -6 -1826 0 -2035 -68 -422 -136 -733 -485 -832
-931 l-23 -105 0 -1665 c0 -1542 1 -1671 17 -1750 107 -524 483 -899 1008
-1006 78 -16 224 -18 1878 -21 l1792 -4 0 -422 c0 -232 -5 -450 -10 -485 -20
-143 -109 -266 -239 -330 l-75 -37 -3285 -3 -3286 -2 -69 22 c-127 40 -243
153 -280 273 -15 45 -16 532 -14 5060 l3 5010 30 60 c71 140 197 231 337 243
40 4 1028 7 2195 7 l2122 0 4 -1125z m762 523 c176 -207 523 -613 770 -903
837 -979 890 -1041 893 -1051 2 -5 -303 -9 -806 -9 -783 0 -812 1 -875 20
-117 36 -228 136 -284 256 l-28 59 -3 1003 c-1 551 1 1002 5 1001 5 0 152
-170 328 -376z m3572 -3691 c344 -92 589 -361 643 -704 8 -53 10 -507 8 -1668
l-3 -1595 -28 -88 c-92 -294 -306 -506 -594 -589 l-78 -23 -2640 0 c-2546 0
-2642 1 -2710 19 -303 81 -535 316 -617 626 l-23 85 0 1610 0 1610 22 86 c58
227 206 424 409 543 80 46 224 94 316 105 40 5 1230 8 2643 7 l2570 -1 82 -23z"/>
<path d="M4980 6596 c-337 -63 -596 -304 -686 -641 -18 -66 -19 -119 -19 -840
0 -865 -3 -823 76 -994 87 -188 237 -338 422 -421 146 -65 251 -80 570 -80
254 0 372 12 477 48 244 84 442 279 530 521 30 82 54 208 48 256 l-3 30 -205
-4 c-113 -1 -206 -4 -207 -5 -1 -1 -7 -33 -13 -71 -27 -178 -147 -305 -317
-336 -32 -6 -178 -9 -351 -7 -282 3 -300 5 -355 26 -115 47 -197 136 -234 257
-17 56 -18 111 -18 780 0 719 0 720 22 790 41 126 126 213 253 256 58 20 90
23 306 27 361 6 464 -13 570 -110 76 -70 114 -149 129 -270 l6 -48 211 0 211
0 -7 80 c-16 200 -109 385 -269 536 -123 117 -258 186 -427 218 -102 20 -617
21 -720 2z"/>
<path d="M7090 5565 l0 -295 -275 0 -275 0 0 -152 c0 -84 4 -157 8 -163 4 -6
107 -10 272 -10 l265 0 3 -287 2 -288 150 0 150 0 2 288 c3 246 5 287 18 288
8 1 131 2 273 3 l257 1 0 160 0 160 -275 0 -275 0 0 295 0 295 -150 0 -150 0
0 -295z"/>
<path d="M8740 5565 l0 -295 -285 0 -285 0 0 -150 c0 -143 1 -150 20 -150 11
0 20 -4 20 -10 0 -6 99 -11 263 -12 l262 -3 3 -287 2 -288 150 0 150 0 2 288
c3 246 5 287 18 288 8 1 131 2 273 3 l257 1 0 160 0 160 -275 0 -275 0 0 295
0 295 -150 0 -150 0 0 -295z"/>
</g>
</svg>
