<?xml version="1.0" encoding="utf-8"?>
<!-- Generator: Adobe Illustrator 24.0.2, SVG Export Plug-In . SVG Version: 6.00 Build 0)  -->
<svg version="1.1" id="Слой_1" xmlns:serif="http://www.serif.com/"
	 xmlns="http://www.w3.org/2000/svg" xmlns:xlink="http://www.w3.org/1999/xlink" x="0px" y="0px" viewBox="0 0 483.7 483.7"
	 style="enable-background:new 0 0 483.7 483.7;" xml:space="preserve">
<style type="text/css">
	.st0{fill-rule:evenodd;clip-rule:evenodd;}
</style>
<path class="st0" d="M483.7,372H334.8v111.6h55.8c24.7,0,48.3-9.8,65.8-27.2c17.4-17.4,27.2-41.1,27.2-65.8V372z M297.6,483.7H186
	V372h111.6V483.7z M0,372v18.6c0,24.7,9.8,48.3,27.2,65.8c17.4,17.4,41.1,27.2,65.8,27.2h55.8V372H0z M148.8,260.4v74.4H0v-74.4
	H148.8z M297.6,260.4v74.4H186v-74.4H297.6z M483.7,260.4v74.4H334.8v-74.4H483.7z M148.8,223.2H0v-74.4h148.8V223.2z M297.6,223.2
	H186v-74.4h111.6V223.2z M483.7,223.2H334.8v-74.4h148.8V223.2z M0,111.6h483.7V93c0-24.7-9.8-48.3-27.2-65.8
	C439,9.8,415.3,0,390.6,0C308.1,0,175.6,0,93,0C68.3,0,44.7,9.8,27.2,27.2C9.8,44.7,0,68.3,0,93C0,93,0,111.6,0,111.6z"/>
</svg>
