<?xml version="1.0" encoding="utf-8"?>
<!-- Generator: Adobe Illustrator 24.0.2, SVG Export Plug-In . SVG Version: 6.00 Build 0)  -->
<svg version="1.1" id="Слой_1" xmlns="http://www.w3.org/2000/svg" xmlns:xlink="http://www.w3.org/1999/xlink" x="0px" y="0px"
	 viewBox="0 0 76.6 76.7" style="enable-background:new 0 0 76.6 76.7;" xml:space="preserve">
<style type="text/css">
	.st0{fill:none;stroke:#777777;stroke-width:6;stroke-miterlimit:10;}
	.st1{fill-rule:evenodd;clip-rule:evenodd;fill:#1E90FF;}
</style>
<g>
	<g>
		<path class="st0" d="M6,17.1c0,0-5,12.3,4.1,21.4s3.1,21.4,3.1,21.4"/>
		<path class="st0" d="M59.7,71.1c0,0-12.3,5-21.4-4.1s-21.4-3.1-21.4-3.1"/>
		<line class="st0" x1="9.2" y1="67.5" x2="38.3" y2="38.4"/>
	</g>
	<g>
		<path class="st0" d="M16.9,6.1c0,0,12.3-5,21.4,4.1s21.4,3.1,21.4,3.1"/>
		<path class="st0" d="M71,59.8c0,0,5-12.3-4.1-21.4s-3.1-21.4-3.1-21.4"/>
		<line class="st0" x1="67.4" y1="9.3" x2="38.3" y2="38.4"/>
	</g>
</g>
<g>
	<circle class="st1" cx="67.3" cy="9.4" r="9.3"/>
	<circle class="st1" cx="9.2" cy="67.5" r="9.2"/>
	<circle class="st1" cx="9.2" cy="9.2" r="9.2"/>
	<circle class="st1" cx="38.3" cy="38.3" r="9.2"/>
	<circle class="st1" cx="67.3" cy="67.5" r="9.2"/>
</g>
</svg>
