<?xml version="1.0" encoding="utf-8"?>
<!-- Generator: Adobe Illustrator 24.0.2, SVG Export Plug-In . SVG Version: 6.00 Build 0)  -->
<svg version="1.1" id="Layer_1" xmlns="http://www.w3.org/2000/svg" xmlns:xlink="http://www.w3.org/1999/xlink" x="0px" y="0px"
	 viewBox="0 0 32 44" style="enable-background:new 0 0 32 44;" xml:space="preserve">
<style type="text/css">
	.st0{fill:#1E90FF;}
	.st1{fill:#EBEBEB;}
	.st2{fill:none;stroke:#EBEBEB;stroke-width:2;stroke-miterlimit:10;}
	.st3{fill:none;}
	.st4{fill:none;stroke:#EBEBEB;stroke-width:2;stroke-miterlimit:10;stroke-dasharray:5.191490e-03,0;}
	.st5{fill:none;stroke:#EBEBEB;stroke-width:2;stroke-miterlimit:10;stroke-dasharray:2.0766,1.5523,5.191490e-03,0;}
</style>
<g>
	<g>
		<path class="st0" d="M32,9v32c0,1.6-1.3,3-3,3H3c-1.7,0-3-1.4-3-3V4c0-2.2,1.8-4,4-4h19c0.3,0,0.5,0.1,0.7,0.3l8,8
			C31.9,8.5,32,8.7,32,9z"/>
		<path class="st1" d="M32,9v1h-9c-0.5,0-1-0.5-1-1V0h1c0.3,0,0.5,0.1,0.7,0.3l8,8C31.9,8.5,32,8.7,32,9z"/>
	</g>
	<g>
		<polyline class="st2" points="14.3,19.1 8.6,19.1 8.6,31.3 14.3,31.3 		"/>
		<polyline class="st2" points="17.7,31.3 23.4,31.3 23.4,19.1 17.7,19.1 		"/>
		<g>
			<line class="st3" x1="11.4" y1="25.2" x2="20.6" y2="25.2"/>
			<g>
				<line class="st2" x1="11.4" y1="25.2" x2="13.4" y2="25.2"/>
				<line class="st4" x1="15" y1="25.2" x2="15" y2="25.2"/>
				<line class="st5" x1="15" y1="25.2" x2="18.6" y2="25.2"/>
				<line class="st2" x1="18.6" y1="25.2" x2="20.6" y2="25.2"/>
			</g>
		</g>
	</g>
</g>
</svg>
