<?xml version="1.0" encoding="utf-8"?>
<!-- Generator: Adobe Illustrator 24.0.2, SVG Export Plug-In . SVG Version: 6.00 Build 0)  -->
<svg version="1.1" id="Layer_1" xmlns="http://www.w3.org/2000/svg" xmlns:xlink="http://www.w3.org/1999/xlink" x="0px" y="0px"
	 viewBox="0 0 32 44.1" style="enable-background:new 0 0 32 44.1;" xml:space="preserve">
<style type="text/css">
	.st0{fill:#1E90FF;}
	.st1{fill:#EBEBEB;}
</style>
<g>
	<g>
		<path class="st0" d="M32,9.1v32c0,1.6-1.3,3-3,3H3c-1.7,0-3-1.4-3-3v-37c0-2.2,1.8-4,4-4h19c0.3,0,0.5,0.1,0.7,0.3l8,8
			C31.9,8.6,32,8.8,32,9.1z"/>
		<path class="st1" d="M32,9.1v1h-9c-0.5,0-1-0.5-1-1v-9h1c0.3,0,0.5,0.1,0.7,0.3l8,8C31.9,8.6,32,8.8,32,9.1z"/>
	</g>
	<g id="Layer_2">
		<path class="st1" d="M23.7,32.4H8.3c-1.3,0-2.3-1-2.3-2.3V17.9c0-1.3,1-2.3,2.3-2.3h15.3c1.3,0,2.3,1,2.3,2.3v12.2
			C26,31.4,24.9,32.4,23.7,32.4z M8.3,17.1c-0.4,0-0.8,0.3-0.8,0.8v12.2c0,0.4,0.3,0.8,0.8,0.8h15.3c0.4,0,0.8-0.3,0.8-0.8V17.9
			c0-0.4-0.3-0.8-0.8-0.8H8.3z"/>
		<path class="st1" d="M19.8,23.2c-1.3,0-2.3-1-2.3-2.3s1-2.3,2.3-2.3s2.3,1,2.3,2.3S21.1,23.2,19.8,23.2z M19.8,20.2
			c-0.4,0-0.8,0.3-0.8,0.8c0,0.4,0.3,0.8,0.8,0.8s0.8-0.3,0.8-0.8C20.6,20.5,20.3,20.2,19.8,20.2z"/>
		<path class="st1" d="M23.7,32.4c-0.3,0-0.5-0.1-0.6-0.3l-3.3-5c-0.2-0.4-0.7-0.4-1.1-0.2c-0.1,0.1-0.2,0.1-0.2,0.2l-0.3,0.4
			c-0.3,0.3-0.7,0.4-1.1,0.1c-0.3-0.2-0.4-0.6-0.2-1l0.3-0.4c0.7-1.1,2.1-1.3,3.2-0.6c0.3,0.2,0.5,0.4,0.6,0.6l3.3,5
			c0.2,0.4,0.1,0.8-0.2,1.1C24,32.4,23.8,32.4,23.7,32.4z"/>
		<path class="st1" d="M8.3,32.4c-0.1,0-0.3,0-0.4-0.1c-0.4-0.2-0.5-0.7-0.2-1.1l4.8-7.4c0.4-0.7,1.1-1,1.9-1.1l0,0
			c0.8,0,1.5,0.4,1.9,1l4.9,7.4c0.2,0.4,0.1,0.8-0.3,1c-0.3,0.2-0.7,0.1-1-0.2L15,24.7c-0.1-0.2-0.4-0.3-0.6-0.3l0,0
			c-0.3,0-0.5,0.1-0.6,0.4L9,32.1C8.8,32.3,8.6,32.4,8.3,32.4z"/>
	</g>
</g>
</svg>
