<?xml version="1.0" encoding="utf-8"?>
<!-- Generator: Adobe Illustrator 24.0.2, SVG Export Plug-In . SVG Version: 6.00 Build 0)  -->
<svg version="1.1" id="Layer_1" xmlns="http://www.w3.org/2000/svg" xmlns:xlink="http://www.w3.org/1999/xlink" x="0px" y="0px"
	 viewBox="0 0 32 44" style="enable-background:new 0 0 32 44;" xml:space="preserve">
<style type="text/css">
	.st0{fill:#1E90FF;}
	.st1{fill:#EBEBEB;}
</style>
<g>
	<g>
		<path class="st0" d="M32,9v32c0,1.6-1.3,3-3,3H3c-1.7,0-3-1.4-3-3V4c0-2.2,1.8-4,4-4h19c0.3,0,0.5,0.1,0.7,0.3l8,8
			C31.9,8.5,32,8.7,32,9z"/>
		<path class="st1" d="M32,9v1h-9c-0.5,0-1-0.5-1-1V0h1c0.3,0,0.5,0.1,0.7,0.3l8,8C31.9,8.5,32,8.7,32,9z"/>
	</g>
</g>
<g>
	<path class="st1" d="M15.9,14.8C10.3,14.9,5.9,19.4,6,25c0.1,5.6,4.6,10,10.2,9.9s10-4.6,9.9-10.2C26,19.2,21.4,14.7,15.9,14.8z
		 M15.8,31L15.8,31c-0.9,0-1.5-0.7-1.5-1.5s0.6-1.4,1.5-1.4l0,0c0.9,0,1.5,0.7,1.5,1.5S16.7,31,15.8,31z M19.4,23.9
		c-0.2,0.3-0.6,0.6-1.2,1.1l-0.6,0.4c-0.3,0.3-0.5,0.5-0.6,0.8c-0.1,0.2-0.1,0.2-0.1,0.6v0.1h-2.3v-0.2c0-0.8,0-1.3,0.4-1.7
		c0.5-0.6,1.7-1.4,1.7-1.4c0.2-0.1,0.3-0.3,0.4-0.4c0.2-0.3,0.4-0.6,0.4-0.9c0-0.4-0.1-0.7-0.3-1C17,21,16.6,20.9,16,20.9
		c-0.6,0-0.9,0.2-1.2,0.5c-0.2,0.4-0.4,0.8-0.4,1.2v0.1H12v-0.1c0.1-1.5,0.6-2.5,1.6-3.2c0.6-0.4,1.4-0.6,2.3-0.6
		c1.2,0,2.2,0.3,2.9,0.8c0.8,0.6,1.2,1.4,1.2,2.5C20,22.7,19.8,23.3,19.4,23.9z"/>
</g>
</svg>
