<?xml version="1.0" encoding="utf-8"?>
<!-- Generator: Adobe Illustrator 24.0.2, SVG Export Plug-In . SVG Version: 6.00 Build 0)  -->
<svg version="1.1" id="Layer_1" xmlns="http://www.w3.org/2000/svg" xmlns:xlink="http://www.w3.org/1999/xlink" x="0px" y="0px"
	 viewBox="0 0 32 44" style="enable-background:new 0 0 32 44;" xml:space="preserve">
<style type="text/css">
	.st0{fill:#1E90FF;}
	.st1{fill:#EBEBEB;}
</style>
<g>
	<g>
		<path class="st0" d="M32,9v32c0,1.6-1.3,3-3,3H3c-1.7,0-3-1.4-3-3V4c0-2.2,1.8-4,4-4h19c0.3,0,0.5,0.1,0.7,0.3l8,8
			C31.9,8.5,32,8.7,32,9z"/>
		<path class="st1" d="M32,9v1h-9c-0.5,0-1-0.5-1-1V0h1c0.3,0,0.5,0.1,0.7,0.3l8,8C31.9,8.5,32,8.7,32,9z"/>
	</g>
</g>
<path class="st1" d="M27,28.6c0,0.5-0.4,0.8-0.8,0.8h-1.4v3.1h-2.6v-0.9c0-0.7-0.6-1.3-1.3-1.3c-0.7,0-1.3,0.6-1.3,1.3v0.9h-2.6
	v-2.6h0.9c0,0,0,0,0,0h0c0.7,0,1.3-0.6,1.3-1.3c0-0.7-0.6-1.3-1.3-1.3h-0.9v-2.6H20v-1.4c0-0.5,0.4-0.8,0.8-0.8
	c0.2,0,0.4,0.1,0.6,0.2c0.2,0.2,0.2,0.4,0.2,0.6v1.4h3.1v3.1h1.4C26.6,27.7,27,28.1,27,28.6z"/>
<path class="st1" d="M18.6,28.6c0,0.5-0.4,0.8-0.8,0.8h-1.4v3.1h-3.1v1.4c0,0.5-0.4,0.8-0.8,0.8c-0.5,0-0.8-0.4-0.8-0.8v-1.4H8.5
	v-3.1H7.1c-0.5,0-0.8-0.4-0.8-0.8c0-0.5,0.4-0.8,0.8-0.8h1.4v-3.1h3.1v-1.4c0-0.5,0.4-0.8,0.8-0.8c0.5,0,0.8,0.4,0.8,0.8v1.4h3.1
	v3.1h1.4C18.2,27.7,18.6,28.1,18.6,28.6z"/>
<path class="st1" d="M14.1,20.2c0,0.7,0.6,1.3,1.3,1.3h0.9v2.6h-2.6v-0.9c0-0.7-0.6-1.3-1.3-1.3c0,0,0,0,0,0c0,0,0,0,0,0
	c-0.7,0-1.3,0.6-1.3,1.3v0.9H8.5V21H7.1c-0.5,0-0.8-0.4-0.8-0.8c0-0.5,0.4-0.8,0.8-0.8h1.4v-3.1h3.1v-1.4c0-0.5,0.4-0.8,0.8-0.8
	c0.5,0,0.8,0.4,0.8,0.8v1.4h3.1v2.6h-0.9C14.7,18.9,14.1,19.5,14.1,20.2z"/>
<path class="st1" d="M22.5,20.2c0,0.7,0.6,1.3,1.3,1.3h0.9v2.6h-2.6v-0.9c0-0.4-0.2-0.7-0.4-0.9c-0.2-0.2-0.6-0.4-0.9-0.4
	c-0.7,0-1.3,0.6-1.3,1.3v0.9h-2.6V21h-1.4c-0.5,0-0.8-0.4-0.8-0.8c0-0.5,0.4-0.8,0.8-0.8h1.4v-3.1H20v-1.4c0-0.5,0.4-0.8,0.8-0.8
	c0.5,0,0.8,0.4,0.8,0.8v1.4h3.1v2.6h-0.9C23.1,18.9,22.5,19.5,22.5,20.2z"/>
</svg>
