<?xml version="1.0" encoding="utf-8"?>
<!-- Generator: Adobe Illustrator 24.0.2, SVG Export Plug-In . SVG Version: 6.00 Build 0)  -->
<svg version="1.1" id="Layer_1" xmlns="http://www.w3.org/2000/svg" xmlns:xlink="http://www.w3.org/1999/xlink" x="0px" y="0px"
	 viewBox="0 0 32 44" style="enable-background:new 0 0 32 44;" xml:space="preserve">
<style type="text/css">
	.st0{fill:#1E90FF;}
	.st1{fill:#EBEBEB;}
</style>
<g>
	<g>
		<path class="st0" d="M32,9v32c0,1.6-1.3,3-3,3H3c-1.7,0-3-1.4-3-3V4c0-2.2,1.8-4,4-4h19c0.3,0,0.5,0.1,0.7,0.3l8,8
			C31.9,8.5,32,8.7,32,9z"/>
		<path class="st1" d="M32,9v1h-9c-0.5,0-1-0.5-1-1V0h1c0.3,0,0.5,0.1,0.7,0.3l8,8C31.9,8.5,32,8.7,32,9z"/>
	</g>
	<path class="st1" d="M24.6,16.1l-7.8-4.5c-0.5-0.3-1.2-0.3-1.6,0l-7.8,4.5c-0.5,0.3-0.8,0.9-0.8,1.4v9c0,0.6,0.3,1.1,0.8,1.4
		l7.8,4.5c0.5,0.3,1.2,0.3,1.6,0l7.8-4.5c0.5-0.3,0.8-0.8,0.8-1.4v-9C25.4,16.9,25.1,16.4,24.6,16.1z M9.7,22
		c0-6.2,8.2-8.9,11.8-3.2l-2.7,1.6c-1.6-2.7-5.7-1.7-5.9,1.6c0,3.1,4.1,4.5,5.9,1.6l2.7,1.6C18.3,30.6,9.9,28.6,9.7,22z M22.3,22.3
		h-0.7v0.7h-0.7v-0.7h-0.7v-0.7h0.7V21h0.7v0.7h0.7V22.3z M24.9,22.3h-0.7v0.7h-0.7v-0.7h-0.7v-0.7h0.7V21h0.7v0.7h0.7V22.3z"/>
</g>
</svg>
