<?xml version="1.0" encoding="utf-8"?>
<!-- Generator: Adobe Illustrator 24.0.2, SVG Export Plug-In . SVG Version: 6.00 Build 0)  -->
<svg version="1.1" id="Layer_1" xmlns="http://www.w3.org/2000/svg" xmlns:xlink="http://www.w3.org/1999/xlink" x="0px" y="0px"
	 viewBox="0 0 32 44" style="enable-background:new 0 0 32 44;" xml:space="preserve">
<style type="text/css">
	.st0{fill:#1E90FF;}
	.st1{fill:#EBEBEB;}
	.st2{enable-background:new    ;}
</style>
<g>
	<g>
		<path class="st0" d="M32,9v32c0,1.6-1.3,3-3,3H3c-1.7,0-3-1.4-3-3V4c0-2.2,1.8-4,4-4h19c0.3,0,0.5,0.1,0.7,0.3l8,8
			C31.9,8.5,32,8.7,32,9z"/>
		<path class="st1" d="M32,9v1h-9c-0.5,0-1-0.5-1-1V0h1c0.3,0,0.5,0.1,0.7,0.3l8,8C31.9,8.5,32,8.7,32,9z"/>
	</g>
	<g class="st2">
		<path class="st1" d="M12.4,20.8h-2.3v7h-2v-7H6v-1.5h6.5v1.5H12.4z"/>
		<path class="st1" d="M16.3,22.1l1.4-2.9H20l-2.4,4.2l2.6,4.3h-2.4l-1.5-2.9l-1.5,2.9h-2.3l2.5-4.3l-2.4-4.2h2.3L16.3,22.1z"/>
		<path class="st1" d="M26.8,20.8h-2.3v7h-2v-7h-2.2v-1.5h6.5V20.8z"/>
	</g>
</g>
</svg>
