<?xml version="1.0" encoding="utf-8"?>
<!-- Generator: Adobe Illustrator 24.0.2, SVG Export Plug-In . SVG Version: 6.00 Build 0)  -->
<svg version="1.1" id="Layer_1" xmlns="http://www.w3.org/2000/svg" xmlns:xlink="http://www.w3.org/1999/xlink" x="0px" y="0px"
	 viewBox="0 0 32 44" style="enable-background:new 0 0 32 44;" xml:space="preserve">
<style type="text/css">
	.st0{fill:#1E90FF;}
	.st1{fill:#EBEBEB;}
</style>
<g>
	<g>
		<path class="st0" d="M32,9v32c0,1.6-1.3,3-3,3H3c-1.7,0-3-1.4-3-3V4c0-2.2,1.8-4,4-4h19c0.3,0,0.5,0.1,0.7,0.3l8,8
			C31.9,8.5,32,8.7,32,9z"/>
		<path class="st1" d="M32,9v1h-9c-0.5,0-1-0.5-1-1V0h1c0.3,0,0.5,0.1,0.7,0.3l8,8C31.9,8.5,32,8.7,32,9z"/>
	</g>
	<g>
		<g id="_x33__8_">
			<g>
				<path class="st1" d="M25.7,22.3l-4,2.6c0-0.8-0.4-1.5-0.9-2c1.3-0.8,2.3-2.3,2.3-4c0-2.6-2.1-4.6-4.6-4.6s-4.6,2.1-4.6,4.6
					c0,1.3,0.5,2.5,1.4,3.3h-2.4c0.6-0.7,1-1.6,1-2.6c0-2.2-1.8-4-4-4s-4,1.8-4,4c0,1.2,0.5,2.3,1.4,3c-0.8,0.5-1.4,1.3-1.4,2.3v5.3
					c0,1.5,1.2,2.6,2.6,2.6h10.6c1.5,0,2.6-1.2,2.6-2.6v-0.7l4,3.3c0.7,0,1.3-0.6,1.3-1.3v-7.9C27,22.9,26.4,22.3,25.7,22.3z
					 M7.1,19.7c0-1.5,1.2-2.6,2.6-2.6c1.5,0,2.6,1.2,2.6,2.6s-1.2,2.6-2.6,2.6C8.3,22.3,7.1,21.1,7.1,19.7z M20.4,30.3
					c0,0.7-0.6,1.3-1.3,1.3H8.5c-0.7,0-1.3-0.6-1.3-1.3V25c0-0.7,0.6-1.3,1.3-1.3h10.6c0.7,0,1.3,0.6,1.3,1.3V30.3z M18.4,22.3
					c-1.8,0-3.3-1.5-3.3-3.3s1.5-3.3,3.3-3.3s3.3,1.5,3.3,3.3C21.7,20.9,20.2,22.3,18.4,22.3z M25.7,31.6l-4-3.3v-2l4-2.6V31.6z"/>
			</g>
		</g>
	</g>
</g>
</svg>
