<?xml version="1.0" encoding="utf-8"?>
<!-- Generator: Adobe Illustrator 24.0.2, SVG Export Plug-In . SVG Version: 6.00 Build 0)  -->
<svg version="1.1" id="Слой_1" xmlns="http://www.w3.org/2000/svg" xmlns:xlink="http://www.w3.org/1999/xlink" x="0px" y="0px"
	 viewBox="0 0 450 450" style="enable-background:new 0 0 450 450;" xml:space="preserve">
<style type="text/css">
	.st0{fill:#1E90FF;fill-opacity:0.9961;}
</style>
<path id="path2982" class="st0" d="M196.9,448.8c-34.2-4.2-67.3-16.5-95.9-35.5c-44.3-29.5-76.6-72.6-91.7-122.6
	c-3.5-11.7-7.1-29.3-8.4-41.2c-1.2-11-1.2-37.9,0-48.9C10.3,111.5,73.4,35.3,159.4,9.3c11.7-3.5,29.3-7.1,41.2-8.4
	c11-1.2,37.9-1.2,48.9,0c52,5.5,100.3,29.2,137.4,67.3c25.5,26.3,43.5,56.7,54,91.2c6.5,21.4,9.3,41.2,9.3,65.6
	c0,18.4-0.9,28.5-4,44.4c-15.9,80.9-76.2,147.4-155.4,171.4c-11.7,3.5-29.3,7.1-41.2,8.4C237.9,450.4,208.2,450.2,196.9,448.8
	L196.9,448.8z M88.3,373.6c5.4-3.7,22.4-11.8,39-18.5c30.7-12.5,41.2-18.3,47.8-26.5c5.8-7.2,6-7.8,6.1-27.3l0.1-17.8l-4.6-6
	c-7.3-9.5-12.6-21.4-15-33.3c-0.9-4.6-1.4-5.2-4.4-6.8c-7.4-3.8-11.9-14-11.9-27.4c0-8.3,0.1-8.6,3-12.8c3-4.2,3-4.3,1.9-9.1
	c-7.6-34.8-7.5-60.9,0.2-80.5c10.6-26.9,35.9-41,74-41.1c19.5,0,30.4,3.4,38.7,12.1c2.7,2.9,4.4,3.8,7.5,4.3c2.2,0.3,6.8,2,10.3,3.7
	c12.6,6.1,21.4,18.7,24.5,35.1c3.3,17.7,1,43.6-5.9,67.7c-1,3.4-0.9,3.8,2,7.8c2.9,4.1,3,4.5,3,12.7c0,13.3-4.4,23.6-11.8,27.4
	c-3.2,1.6-3.5,2.1-4.9,8.6c-2.7,12.4-9.8,27.4-16,33.8l-3.1,3.2l0.4,17.9c0.4,17.7,0.4,17.9,2.9,22.5c5.4,10,15.6,17,37.9,26.2
	c29.1,12,40.2,17,47.5,21.4c5,3,8.1,4.3,9.2,4c2.2-0.7,16.3-16.4,24.2-27c20.2-27,33.4-59.1,38.8-93.9c2.2-14.1,2.2-44,0-58
	c-3.5-22.5-10-43-19.5-62.4C379.5,72.3,322.9,31.2,254,20.5c-14.1-2.2-43.9-2.2-58,0c-22.5,3.5-43,9.9-62.4,19.6
	C72.3,70.5,31.2,127.2,20.5,196c-2.2,14.1-2.2,44,0,58c6.9,44.1,25.5,82.1,56.1,114.5c3.5,3.8,7,6.8,7.8,6.8
	C85.1,375.4,86.8,374.6,88.3,373.6z"/>
</svg>
